<svg width="247" height="52" viewBox="0 0 247 52" fill="none" xmlns="http://www.w3.org/2000/svg">
<path d="M73 25.6902V3H77.8026V15.7749H79.9096L83.5348 9.74491H88.8952L84.6193 16.3966C85.8587 16.9146 86.8192 17.7124 87.5009 18.7899C88.2032 19.8467 88.5544 21.09 88.5544 22.5198V25.6902H83.7207V22.5198C83.7207 21.9396 83.5762 21.4216 83.287 20.9657C83.0184 20.4891 82.6569 20.1161 82.2025 19.8467C81.748 19.5773 81.2316 19.4427 80.6533 19.4427H77.8026V25.6902H73Z" fill="#231C3A"/>
<path d="M99.5714 26.0632C97.9396 26.0632 96.5246 25.7524 95.3265 25.1308C94.1491 24.4884 93.2402 23.6284 92.5998 22.5509C91.9595 21.4527 91.6393 20.2404 91.6393 18.9143V9.74491H96.442V18.7899C96.442 19.3494 96.5762 19.8675 96.8448 20.3441C97.1133 20.7999 97.4748 21.1729 97.9292 21.463C98.4043 21.7324 98.9414 21.8671 99.5404 21.8671C100.119 21.8671 100.635 21.7324 101.09 21.463C101.565 21.1729 101.937 20.7999 102.205 20.3441C102.474 19.8675 102.608 19.3494 102.608 18.7899V9.74491H107.411V18.9143C107.411 20.2404 107.101 21.4527 106.481 22.5509C105.861 23.6284 104.963 24.4884 103.785 25.1308C102.629 25.7524 101.224 26.0632 99.5714 26.0632Z" fill="#231C3A"/>
<path d="M119.402 26.0632C117.687 26.0632 116.19 25.711 114.909 25.0064C113.628 24.3019 112.637 23.2969 111.934 21.9914C111.232 20.686 110.881 19.1629 110.881 17.4223V3H115.684V11.4855H115.776C116.086 11.0504 116.468 10.6774 116.923 10.3666C117.398 10.035 117.914 9.78635 118.472 9.62058C119.051 9.4548 119.66 9.37192 120.3 9.37192C121.808 9.37192 123.13 9.71383 124.266 10.3976C125.402 11.0815 126.291 12.0243 126.931 13.2262C127.592 14.428 127.923 15.8371 127.923 17.4534C127.923 18.6967 127.726 19.8467 127.334 20.9035C126.941 21.9603 126.373 22.8825 125.63 23.6699C124.907 24.4366 124.018 25.0272 122.965 25.4416C121.932 25.856 120.744 26.0632 119.402 26.0632ZM119.402 21.8982C120.145 21.8982 120.786 21.722 121.323 21.3698C121.86 20.9968 122.273 20.4995 122.562 19.8778C122.872 19.2354 123.027 18.5205 123.027 17.7331C123.027 16.9457 122.872 16.2412 122.562 15.6195C122.273 14.9979 121.86 14.5109 121.323 14.1586C120.786 13.7856 120.145 13.5991 119.402 13.5991C118.658 13.5991 118.007 13.7856 117.45 14.1586C116.913 14.5109 116.499 14.9979 116.21 15.6195C115.921 16.2412 115.776 16.9457 115.776 17.7331C115.776 18.5205 115.921 19.2354 116.21 19.8778C116.499 20.4995 116.913 20.9968 117.45 21.3698C118.007 21.722 118.658 21.8982 119.402 21.8982Z" fill="#231C3A"/>
<path d="M137.147 26.0632C135.742 26.0632 134.503 25.7006 133.428 24.9753C132.354 24.2501 131.518 23.2762 130.919 22.0536C130.32 20.8103 130.02 19.4116 130.02 17.8574C130.02 16.2412 130.371 14.801 131.074 13.537C131.776 12.2522 132.767 11.2369 134.048 10.4909C135.349 9.74491 136.878 9.37192 138.634 9.37192C140.41 9.37192 141.918 9.74491 143.158 10.4909C144.418 11.2161 145.378 12.2211 146.039 13.5059C146.721 14.7699 147.062 16.1894 147.062 17.7642V25.6902H142.352V23.1415H142.228C141.939 23.701 141.567 24.2086 141.113 24.6645C140.658 25.0997 140.1 25.4416 139.439 25.6902C138.799 25.9389 138.035 26.0632 137.147 26.0632ZM138.572 21.8982C139.295 21.8982 139.925 21.722 140.462 21.3698C141.02 20.9968 141.443 20.4891 141.732 19.8467C142.022 19.2044 142.166 18.4895 142.166 17.702C142.166 16.9353 142.022 16.2412 141.732 15.6195C141.443 14.9979 141.02 14.5109 140.462 14.1586C139.925 13.7856 139.295 13.5991 138.572 13.5991C137.828 13.5991 137.178 13.7856 136.62 14.1586C136.062 14.5109 135.639 14.9979 135.349 15.6195C135.06 16.2412 134.916 16.9353 134.916 17.702C134.916 18.4895 135.06 19.2044 135.349 19.8467C135.639 20.4891 136.062 20.9968 136.62 21.3698C137.178 21.722 137.828 21.8982 138.572 21.8982Z" fill="#231C3A"/>
<path d="M156.129 32V25.7835C154.972 25.4934 153.98 25.0272 153.154 24.3848C152.328 23.7217 151.698 22.9239 151.264 21.9914C150.83 21.0382 150.613 20.0125 150.613 18.9143V9.74491H155.416V18.7588C155.416 19.3183 155.55 19.8364 155.819 20.313C156.087 20.7896 156.449 21.1729 156.903 21.463C157.378 21.7324 157.905 21.8671 158.483 21.8671C159.083 21.8671 159.609 21.7324 160.064 21.463C160.539 21.1729 160.911 20.7896 161.179 20.313C161.448 19.8364 161.582 19.3183 161.582 18.7588V9.74491H166.385V18.9143C166.385 20.0125 166.168 21.0279 165.734 21.9603C165.321 22.8928 164.701 23.6906 163.875 24.3537C163.069 25.0168 162.088 25.483 160.931 25.7524V32H156.129Z" fill="#231C3A"/>
<path d="M176.362 26.0632C174.957 26.0632 173.718 25.7006 172.644 24.9753C171.569 24.2501 170.733 23.2762 170.134 22.0536C169.535 20.8103 169.235 19.4116 169.235 17.8574C169.235 16.2412 169.586 14.801 170.289 13.537C170.991 12.2522 171.983 11.2369 173.263 10.4909C174.565 9.74491 176.093 9.37192 177.849 9.37192C179.625 9.37192 181.133 9.74491 182.373 10.4909C183.633 11.2161 184.593 12.2211 185.254 13.5059C185.936 14.7699 186.277 16.1894 186.277 17.7642V25.6902H181.567V23.1415H181.443C181.154 23.701 180.782 24.2086 180.328 24.6645C179.873 25.0997 179.316 25.4416 178.655 25.6902C178.014 25.9389 177.25 26.0632 176.362 26.0632ZM177.787 21.8982C178.51 21.8982 179.14 21.722 179.677 21.3698C180.235 20.9968 180.658 20.4891 180.947 19.8467C181.237 19.2044 181.381 18.4895 181.381 17.702C181.381 16.9353 181.237 16.2412 180.947 15.6195C180.658 14.9979 180.235 14.5109 179.677 14.1586C179.14 13.7856 178.51 13.5991 177.787 13.5991C177.043 13.5991 176.393 13.7856 175.835 14.1586C175.277 14.5109 174.854 14.9979 174.565 15.6195C174.275 16.2412 174.131 16.9353 174.131 17.702C174.131 18.4895 174.275 19.2044 174.565 19.8467C174.854 20.4891 175.277 20.9968 175.835 21.3698C176.393 21.722 177.043 21.8982 177.787 21.8982Z" fill="#231C3A"/>
<path d="M189.705 25.6902V14.4384C189.705 12.9879 190.118 11.8482 190.944 11.0193C191.77 10.1904 192.917 9.77599 194.383 9.77599H199V13.6924H195.561C195.271 13.6924 195.024 13.796 194.817 14.0032C194.61 14.1897 194.507 14.4384 194.507 14.7492V25.6902H189.705Z" fill="#231C3A"/>
<path d="M74.792 47.07C74.6147 47.07 74.4747 47.0187 74.372 46.916C74.2693 46.804 74.218 46.6593 74.218 46.482V37.648C74.218 37.4707 74.2693 37.3307 74.372 37.228C74.4747 37.116 74.6147 37.06 74.792 37.06C74.9693 37.06 75.1093 37.116 75.212 37.228C75.3147 37.3307 75.366 37.4707 75.366 37.648V46.482C75.366 46.6593 75.3147 46.804 75.212 46.916C75.1093 47.0187 74.9693 47.07 74.792 47.07ZM81.062 40.014C82.6954 40.014 83.512 40.9147 83.512 42.716V46.51C83.512 46.6873 83.4607 46.8273 83.358 46.93C83.2647 47.0233 83.1294 47.07 82.952 47.07C82.7747 47.07 82.6347 47.0233 82.532 46.93C82.4294 46.8273 82.378 46.6873 82.378 46.51V42.786C82.378 42.1513 82.252 41.6893 82 41.4C81.7574 41.1107 81.3654 40.966 80.824 40.966C80.1987 40.966 79.6994 41.1573 79.326 41.54C78.9527 41.9227 78.766 42.4407 78.766 43.094V46.51C78.766 46.6873 78.7147 46.8273 78.612 46.93C78.5187 47.0233 78.3834 47.07 78.206 47.07C78.0287 47.07 77.8887 47.0233 77.786 46.93C77.6834 46.8273 77.632 46.6873 77.632 46.51V40.602C77.632 40.434 77.6834 40.2987 77.786 40.196C77.8887 40.0933 78.0287 40.042 78.206 40.042C78.374 40.042 78.5047 40.0933 78.598 40.196C78.7007 40.2987 78.752 40.4293 78.752 40.588V41.302C78.976 40.882 79.2887 40.5647 79.69 40.35C80.0914 40.126 80.5487 40.014 81.062 40.014ZM90.5031 40.392C90.6057 40.168 90.7691 40.056 90.9931 40.056C91.1331 40.056 91.2591 40.1027 91.3711 40.196C91.4831 40.2893 91.5391 40.406 91.5391 40.546C91.5391 40.63 91.5204 40.7047 91.4831 40.77L88.7531 46.65C88.6971 46.7713 88.6131 46.8693 88.5011 46.944C88.3891 47.0093 88.2677 47.042 88.1371 47.042C88.0157 47.042 87.8991 47.0093 87.7871 46.944C87.6751 46.8693 87.5864 46.7713 87.5211 46.65L84.8051 40.77C84.7677 40.7047 84.7491 40.6347 84.7491 40.56C84.7491 40.42 84.8097 40.2987 84.9311 40.196C85.0617 40.0933 85.2017 40.042 85.3511 40.042C85.4444 40.042 85.5331 40.07 85.6171 40.126C85.7104 40.182 85.7804 40.2613 85.8271 40.364L88.1651 45.614L90.5031 40.392ZM95.5264 47.098C94.8824 47.098 94.3131 46.9533 93.8184 46.664C93.3331 46.3747 92.9551 45.964 92.6844 45.432C92.4231 44.8907 92.2924 44.2653 92.2924 43.556C92.2924 42.8467 92.4231 42.226 92.6844 41.694C92.9551 41.1527 93.3331 40.7373 93.8184 40.448C94.3131 40.1587 94.8824 40.014 95.5264 40.014C96.1704 40.014 96.7398 40.1587 97.2344 40.448C97.7291 40.7373 98.1071 41.1527 98.3684 41.694C98.6391 42.226 98.7744 42.8467 98.7744 43.556C98.7744 44.2653 98.6391 44.8907 98.3684 45.432C98.1071 45.964 97.7291 46.3747 97.2344 46.664C96.7398 46.9533 96.1704 47.098 95.5264 47.098ZM95.5264 46.16C96.1984 46.16 96.7118 45.9407 97.0664 45.502C97.4304 45.054 97.6124 44.4053 97.6124 43.556C97.6124 42.7253 97.4304 42.086 97.0664 41.638C96.7024 41.1807 96.1891 40.952 95.5264 40.952C94.8638 40.952 94.3504 41.1807 93.9864 41.638C93.6224 42.086 93.4404 42.7253 93.4404 43.556C93.4404 44.396 93.6178 45.04 93.9724 45.488C94.3364 45.936 94.8544 46.16 95.5264 46.16ZM101.038 47.07C100.87 47.07 100.73 47.0233 100.618 46.93C100.515 46.8273 100.464 46.6873 100.464 46.51V40.602C100.464 40.4247 100.515 40.2893 100.618 40.196C100.73 40.0933 100.87 40.042 101.038 40.042C101.206 40.042 101.341 40.0933 101.444 40.196C101.547 40.2893 101.598 40.4247 101.598 40.602V46.51C101.598 46.6967 101.547 46.8367 101.444 46.93C101.341 47.0233 101.206 47.07 101.038 47.07ZM101.038 38.572C100.814 38.572 100.632 38.5067 100.492 38.376C100.352 38.2453 100.282 38.0727 100.282 37.858C100.282 37.6527 100.352 37.4847 100.492 37.354C100.632 37.2233 100.814 37.158 101.038 37.158C101.262 37.158 101.444 37.2233 101.584 37.354C101.724 37.4847 101.794 37.6527 101.794 37.858C101.794 38.0727 101.724 38.2453 101.584 38.376C101.444 38.5067 101.262 38.572 101.038 38.572ZM106.532 47.098C105.897 47.098 105.333 46.9533 104.838 46.664C104.353 46.3747 103.975 45.964 103.704 45.432C103.443 44.9 103.312 44.284 103.312 43.584C103.312 42.884 103.447 42.2633 103.718 41.722C103.998 41.1807 104.385 40.7607 104.88 40.462C105.375 40.1633 105.944 40.014 106.588 40.014C106.943 40.014 107.293 40.0653 107.638 40.168C107.993 40.2613 108.301 40.4013 108.562 40.588C108.73 40.7 108.847 40.812 108.912 40.924C108.987 41.0267 109.024 41.1433 109.024 41.274C109.024 41.4047 108.987 41.512 108.912 41.596C108.847 41.68 108.758 41.722 108.646 41.722C108.581 41.722 108.511 41.7033 108.436 41.666C108.361 41.6287 108.296 41.5913 108.24 41.554C108.193 41.5167 108.161 41.4933 108.142 41.484C107.899 41.3253 107.666 41.1993 107.442 41.106C107.227 41.0127 106.961 40.966 106.644 40.966C105.963 40.966 105.431 41.1993 105.048 41.666C104.675 42.1233 104.488 42.7627 104.488 43.584C104.488 44.4053 104.675 45.04 105.048 45.488C105.431 45.936 105.963 46.16 106.644 46.16C106.961 46.16 107.232 46.1133 107.456 46.02C107.689 45.9267 107.923 45.8007 108.156 45.642C108.259 45.5767 108.357 45.5207 108.45 45.474C108.543 45.4273 108.623 45.404 108.688 45.404C108.791 45.404 108.875 45.446 108.94 45.53C109.015 45.614 109.052 45.7213 109.052 45.852C109.052 45.9733 109.019 46.0853 108.954 46.188C108.889 46.2813 108.767 46.3887 108.59 46.51C108.329 46.6873 108.011 46.832 107.638 46.944C107.274 47.0467 106.905 47.098 106.532 47.098ZM110.991 47.07C110.823 47.07 110.683 47.0233 110.571 46.93C110.469 46.8273 110.417 46.6873 110.417 46.51V40.602C110.417 40.4247 110.469 40.2893 110.571 40.196C110.683 40.0933 110.823 40.042 110.991 40.042C111.159 40.042 111.295 40.0933 111.397 40.196C111.5 40.2893 111.551 40.4247 111.551 40.602V46.51C111.551 46.6967 111.5 46.8367 111.397 46.93C111.295 47.0233 111.159 47.07 110.991 47.07ZM110.991 38.572C110.767 38.572 110.585 38.5067 110.445 38.376C110.305 38.2453 110.235 38.0727 110.235 37.858C110.235 37.6527 110.305 37.4847 110.445 37.354C110.585 37.2233 110.767 37.158 110.991 37.158C111.215 37.158 111.397 37.2233 111.537 37.354C111.677 37.4847 111.747 37.6527 111.747 37.858C111.747 38.0727 111.677 38.2453 111.537 38.376C111.397 38.5067 111.215 38.572 110.991 38.572ZM117.101 40.014C118.734 40.014 119.551 40.9147 119.551 42.716V46.51C119.551 46.6873 119.5 46.8273 119.397 46.93C119.304 47.0233 119.168 47.07 118.991 47.07C118.814 47.07 118.674 47.0233 118.571 46.93C118.468 46.8273 118.417 46.6873 118.417 46.51V42.786C118.417 42.1513 118.291 41.6893 118.039 41.4C117.796 41.1107 117.404 40.966 116.863 40.966C116.238 40.966 115.738 41.1573 115.365 41.54C114.992 41.9227 114.805 42.4407 114.805 43.094V46.51C114.805 46.6873 114.754 46.8273 114.651 46.93C114.558 47.0233 114.422 47.07 114.245 47.07C114.068 47.07 113.928 47.0233 113.825 46.93C113.722 46.8273 113.671 46.6873 113.671 46.51V40.602C113.671 40.434 113.722 40.2987 113.825 40.196C113.928 40.0933 114.068 40.042 114.245 40.042C114.413 40.042 114.544 40.0933 114.637 40.196C114.74 40.2987 114.791 40.4293 114.791 40.588V41.302C115.015 40.882 115.328 40.5647 115.729 40.35C116.13 40.126 116.588 40.014 117.101 40.014ZM127.158 40.042C127.335 40.042 127.475 40.0933 127.578 40.196C127.681 40.2987 127.732 40.434 127.732 40.602V46.538C127.732 47.5553 127.471 48.3207 126.948 48.834C126.425 49.3567 125.651 49.618 124.624 49.618C123.625 49.618 122.795 49.422 122.132 49.03C121.796 48.8433 121.628 48.6287 121.628 48.386C121.628 48.2553 121.661 48.148 121.726 48.064C121.801 47.98 121.894 47.938 122.006 47.938C122.099 47.938 122.267 48.0033 122.51 48.134C122.837 48.302 123.159 48.4373 123.476 48.54C123.793 48.6427 124.171 48.694 124.61 48.694C125.273 48.694 125.772 48.5167 126.108 48.162C126.444 47.8167 126.612 47.308 126.612 46.636V45.432C126.416 45.8707 126.113 46.2067 125.702 46.44C125.301 46.6733 124.825 46.79 124.274 46.79C123.677 46.79 123.145 46.65 122.678 46.37C122.221 46.09 121.861 45.6933 121.6 45.18C121.348 44.6667 121.222 44.074 121.222 43.402C121.222 42.73 121.348 42.1373 121.6 41.624C121.861 41.1107 122.221 40.714 122.678 40.434C123.145 40.154 123.677 40.014 124.274 40.014C124.815 40.014 125.287 40.1307 125.688 40.364C126.089 40.5973 126.393 40.9287 126.598 41.358V40.602C126.598 40.434 126.645 40.2987 126.738 40.196C126.841 40.0933 126.981 40.042 127.158 40.042ZM124.498 45.852C125.151 45.852 125.665 45.6373 126.038 45.208C126.411 44.7693 126.598 44.1673 126.598 43.402C126.598 42.646 126.411 42.0533 126.038 41.624C125.674 41.1853 125.161 40.966 124.498 40.966C123.835 40.966 123.313 41.1853 122.93 41.624C122.557 42.0533 122.37 42.646 122.37 43.402C122.37 44.1673 122.557 44.7693 122.93 45.208C123.313 45.6373 123.835 45.852 124.498 45.852ZM142.107 46.342C142.144 46.4167 142.163 46.496 142.163 46.58C142.163 46.72 142.107 46.8367 141.995 46.93C141.892 47.0233 141.766 47.07 141.617 47.07C141.383 47.07 141.22 46.958 141.127 46.734L140.133 44.466H134.855L133.847 46.734C133.753 46.958 133.59 47.07 133.357 47.07C133.207 47.07 133.077 47.0233 132.965 46.93C132.853 46.8273 132.797 46.706 132.797 46.566C132.797 46.4913 132.815 46.4167 132.853 46.342L136.857 37.438C136.913 37.3073 136.997 37.2093 137.109 37.144C137.221 37.0787 137.342 37.046 137.473 37.046C137.613 37.046 137.739 37.0833 137.851 37.158C137.963 37.2233 138.047 37.3167 138.103 37.438L142.107 46.342ZM139.713 43.514L137.487 38.488L135.275 43.514H139.713ZM149.087 37.06C149.264 37.06 149.404 37.1113 149.507 37.214C149.609 37.3167 149.661 37.4473 149.661 37.606V46.51C149.661 46.678 149.609 46.8133 149.507 46.916C149.404 47.0187 149.264 47.07 149.087 47.07C148.909 47.07 148.769 47.0187 148.667 46.916C148.573 46.8133 148.527 46.678 148.527 46.51V45.754C148.321 46.1833 148.018 46.5147 147.617 46.748C147.225 46.9813 146.763 47.098 146.231 47.098C145.633 47.098 145.106 46.9487 144.649 46.65C144.191 46.3513 143.837 45.936 143.585 45.404C143.333 44.8627 143.207 44.2373 143.207 43.528C143.207 42.828 143.333 42.212 143.585 41.68C143.837 41.148 144.191 40.7373 144.649 40.448C145.106 40.1587 145.633 40.014 146.231 40.014C146.763 40.014 147.225 40.1307 147.617 40.364C148.018 40.5973 148.321 40.9287 148.527 41.358V37.606C148.527 37.438 148.573 37.3073 148.667 37.214C148.769 37.1113 148.909 37.06 149.087 37.06ZM146.455 46.16C147.117 46.16 147.626 45.936 147.981 45.488C148.345 45.0307 148.527 44.3867 148.527 43.556C148.527 42.7253 148.345 42.086 147.981 41.638C147.626 41.19 147.117 40.966 146.455 40.966C145.792 40.966 145.274 41.19 144.901 41.638C144.537 42.086 144.355 42.716 144.355 43.528C144.355 44.3587 144.537 45.0073 144.901 45.474C145.274 45.9313 145.792 46.16 146.455 46.16ZM159.349 40.014C160.861 40.014 161.617 40.9147 161.617 42.716V46.51C161.617 46.6873 161.566 46.8273 161.463 46.93C161.36 47.0233 161.225 47.07 161.057 47.07C160.889 47.07 160.749 47.0233 160.637 46.93C160.534 46.8273 160.483 46.6873 160.483 46.51V42.744C160.483 42.1187 160.371 41.666 160.147 41.386C159.923 41.106 159.573 40.966 159.097 40.966C158.528 40.966 158.08 41.1573 157.753 41.54C157.426 41.9227 157.263 42.4407 157.263 43.094V46.51C157.263 46.6873 157.207 46.8273 157.095 46.93C156.992 47.0233 156.857 47.07 156.689 47.07C156.521 47.07 156.386 47.0233 156.283 46.93C156.18 46.8273 156.129 46.6873 156.129 46.51V42.744C156.129 42.1187 156.017 41.666 155.793 41.386C155.569 41.106 155.214 40.966 154.729 40.966C154.169 40.966 153.721 41.1573 153.385 41.54C153.058 41.9227 152.895 42.4407 152.895 43.094V46.51C152.895 46.6873 152.844 46.8273 152.741 46.93C152.638 47.0233 152.503 47.07 152.335 47.07C152.167 47.07 152.027 47.0233 151.915 46.93C151.812 46.8273 151.761 46.6873 151.761 46.51V40.602C151.761 40.434 151.812 40.2987 151.915 40.196C152.027 40.0933 152.167 40.042 152.335 40.042C152.494 40.042 152.624 40.0933 152.727 40.196C152.83 40.2893 152.881 40.42 152.881 40.588V41.26C153.086 40.8587 153.371 40.5507 153.735 40.336C154.099 40.1213 154.519 40.014 154.995 40.014C156.059 40.014 156.754 40.462 157.081 41.358C157.277 40.9473 157.576 40.6207 157.977 40.378C158.378 40.1353 158.836 40.014 159.349 40.014ZM164.257 47.07C164.089 47.07 163.949 47.0233 163.837 46.93C163.734 46.8273 163.683 46.6873 163.683 46.51V40.602C163.683 40.4247 163.734 40.2893 163.837 40.196C163.949 40.0933 164.089 40.042 164.257 40.042C164.425 40.042 164.56 40.0933 164.663 40.196C164.765 40.2893 164.817 40.4247 164.817 40.602V46.51C164.817 46.6967 164.765 46.8367 164.663 46.93C164.56 47.0233 164.425 47.07 164.257 47.07ZM164.257 38.572C164.033 38.572 163.851 38.5067 163.711 38.376C163.571 38.2453 163.501 38.0727 163.501 37.858C163.501 37.6527 163.571 37.4847 163.711 37.354C163.851 37.2233 164.033 37.158 164.257 37.158C164.481 37.158 164.663 37.2233 164.803 37.354C164.943 37.4847 165.013 37.6527 165.013 37.858C165.013 38.0727 164.943 38.2453 164.803 38.376C164.663 38.5067 164.481 38.572 164.257 38.572ZM170.367 40.014C172 40.014 172.817 40.9147 172.817 42.716V46.51C172.817 46.6873 172.765 46.8273 172.663 46.93C172.569 47.0233 172.434 47.07 172.257 47.07C172.079 47.07 171.939 47.0233 171.837 46.93C171.734 46.8273 171.683 46.6873 171.683 46.51V42.786C171.683 42.1513 171.557 41.6893 171.305 41.4C171.062 41.1107 170.67 40.966 170.129 40.966C169.503 40.966 169.004 41.1573 168.631 41.54C168.257 41.9227 168.071 42.4407 168.071 43.094V46.51C168.071 46.6873 168.019 46.8273 167.917 46.93C167.823 47.0233 167.688 47.07 167.511 47.07C167.333 47.07 167.193 47.0233 167.091 46.93C166.988 46.8273 166.937 46.6873 166.937 46.51V40.602C166.937 40.434 166.988 40.2987 167.091 40.196C167.193 40.0933 167.333 40.042 167.511 40.042C167.679 40.042 167.809 40.0933 167.903 40.196C168.005 40.2987 168.057 40.4293 168.057 40.588V41.302C168.281 40.882 168.593 40.5647 168.995 40.35C169.396 40.126 169.853 40.014 170.367 40.014ZM179.259 47C179.082 47 178.937 46.9487 178.825 46.846C178.722 46.7433 178.671 46.608 178.671 46.44V37.69C178.671 37.522 178.722 37.3867 178.825 37.284C178.937 37.1813 179.082 37.13 179.259 37.13H181.989C183.566 37.13 184.784 37.5593 185.643 38.418C186.511 39.2673 186.945 40.4807 186.945 42.058C186.945 43.6353 186.511 44.8533 185.643 45.712C184.775 46.5707 183.557 47 181.989 47H179.259ZM181.919 46.02C184.476 46.02 185.755 44.6993 185.755 42.058C185.755 39.426 184.476 38.11 181.919 38.11H179.819V46.02H181.919ZM191.639 40.014C193.347 40.014 194.201 40.91 194.201 42.702V46.51C194.201 46.678 194.149 46.8133 194.047 46.916C193.953 47.0187 193.823 47.07 193.655 47.07C193.487 47.07 193.351 47.0187 193.249 46.916C193.146 46.8133 193.095 46.678 193.095 46.51V45.838C192.917 46.2393 192.647 46.552 192.283 46.776C191.919 46.9907 191.499 47.098 191.023 47.098C190.584 47.098 190.178 47.0093 189.805 46.832C189.441 46.6547 189.151 46.4073 188.937 46.09C188.722 45.7727 188.615 45.4227 188.615 45.04C188.615 44.5267 188.745 44.13 189.007 43.85C189.268 43.5607 189.697 43.3553 190.295 43.234C190.892 43.1033 191.723 43.038 192.787 43.038H193.095V42.576C193.095 42.016 192.978 41.6053 192.745 41.344C192.521 41.0827 192.152 40.952 191.639 40.952C191.004 40.952 190.36 41.1247 189.707 41.47C189.455 41.6287 189.277 41.708 189.175 41.708C189.063 41.708 188.969 41.666 188.895 41.582C188.82 41.498 188.783 41.3907 188.783 41.26C188.783 41.1293 188.82 41.0173 188.895 40.924C188.979 40.8213 189.109 40.7187 189.287 40.616C189.613 40.4293 189.982 40.2847 190.393 40.182C190.813 40.07 191.228 40.014 191.639 40.014ZM191.177 46.202C191.737 46.202 192.194 46.0153 192.549 45.642C192.913 45.2593 193.095 44.7693 193.095 44.172V43.766H192.843C192.021 43.766 191.396 43.8033 190.967 43.878C190.537 43.9433 190.229 44.06 190.043 44.228C189.865 44.3867 189.777 44.6247 189.777 44.942C189.777 45.306 189.907 45.6093 190.169 45.852C190.439 46.0853 190.775 46.202 191.177 46.202ZM198.573 47.098C198.143 47.098 197.733 47.0467 197.341 46.944C196.958 46.8413 196.617 46.6967 196.319 46.51C196.151 46.398 196.029 46.2953 195.955 46.202C195.889 46.0993 195.857 45.978 195.857 45.838C195.857 45.7167 195.889 45.6187 195.955 45.544C196.029 45.46 196.123 45.418 196.235 45.418C196.347 45.418 196.51 45.488 196.725 45.628C197.005 45.796 197.28 45.9313 197.551 46.034C197.831 46.1273 198.176 46.174 198.587 46.174C199.091 46.174 199.483 46.0853 199.763 45.908C200.043 45.7307 200.183 45.474 200.183 45.138C200.183 44.9327 200.131 44.7693 200.029 44.648C199.926 44.5173 199.749 44.4053 199.497 44.312C199.245 44.2093 198.876 44.1067 198.391 44.004C197.569 43.8267 196.981 43.5887 196.627 43.29C196.272 42.9913 196.095 42.5853 196.095 42.072C196.095 41.6707 196.207 41.316 196.431 41.008C196.655 40.7 196.963 40.4573 197.355 40.28C197.756 40.1027 198.209 40.014 198.713 40.014C199.077 40.014 199.427 40.0653 199.763 40.168C200.108 40.2613 200.411 40.3967 200.673 40.574C200.99 40.798 201.149 41.0313 201.149 41.274C201.149 41.3953 201.111 41.498 201.037 41.582C200.962 41.666 200.873 41.708 200.771 41.708C200.659 41.708 200.491 41.6287 200.267 41.47C200.005 41.302 199.758 41.1713 199.525 41.078C199.291 40.9847 199.002 40.938 198.657 40.938C198.218 40.938 197.863 41.036 197.593 41.232C197.331 41.428 197.201 41.6893 197.201 42.016C197.201 42.2213 197.247 42.3893 197.341 42.52C197.443 42.6413 197.607 42.7533 197.831 42.856C198.064 42.9493 198.395 43.0427 198.825 43.136C199.459 43.276 199.949 43.43 200.295 43.598C200.649 43.766 200.901 43.9713 201.051 44.214C201.2 44.4567 201.275 44.7647 201.275 45.138C201.275 45.726 201.027 46.202 200.533 46.566C200.038 46.9207 199.385 47.098 198.573 47.098ZM206.447 40.014C207.25 40.014 207.856 40.2427 208.267 40.7C208.678 41.148 208.883 41.82 208.883 42.716V46.51C208.883 46.6873 208.832 46.8273 208.729 46.93C208.626 47.0233 208.491 47.07 208.323 47.07C208.146 47.07 208.006 47.0233 207.903 46.93C207.8 46.8273 207.749 46.6873 207.749 46.51V42.744C207.749 42.1373 207.623 41.6893 207.371 41.4C207.128 41.1107 206.736 40.966 206.195 40.966C205.57 40.966 205.07 41.1573 204.697 41.54C204.324 41.9227 204.137 42.4407 204.137 43.094V46.51C204.137 46.6873 204.086 46.8273 203.983 46.93C203.89 47.0233 203.754 47.07 203.577 47.07C203.4 47.07 203.26 47.0233 203.157 46.93C203.054 46.8273 203.003 46.6873 203.003 46.51V37.606C203.003 37.4473 203.054 37.3167 203.157 37.214C203.269 37.1113 203.409 37.06 203.577 37.06C203.754 37.06 203.89 37.1113 203.983 37.214C204.086 37.3073 204.137 37.438 204.137 37.606V41.274C204.361 40.8633 204.674 40.5507 205.075 40.336C205.476 40.1213 205.934 40.014 206.447 40.014ZM214.39 40.014C214.987 40.014 215.515 40.1587 215.972 40.448C216.429 40.7373 216.784 41.148 217.036 41.68C217.288 42.212 217.414 42.828 217.414 43.528C217.414 44.2373 217.288 44.8627 217.036 45.404C216.784 45.936 216.429 46.3513 215.972 46.65C215.515 46.9487 214.987 47.098 214.39 47.098C213.858 47.098 213.391 46.9813 212.99 46.748C212.598 46.5147 212.299 46.1833 212.094 45.754V46.51C212.094 46.678 212.043 46.8133 211.94 46.916C211.847 47.0187 211.711 47.07 211.534 47.07C211.357 47.07 211.217 47.0187 211.114 46.916C211.011 46.8133 210.96 46.678 210.96 46.51V37.606C210.96 37.4473 211.011 37.3167 211.114 37.214C211.217 37.1113 211.357 37.06 211.534 37.06C211.711 37.06 211.847 37.1113 211.94 37.214C212.043 37.3073 212.094 37.438 212.094 37.606V41.358C212.299 40.9287 212.598 40.5973 212.99 40.364C213.391 40.1307 213.858 40.014 214.39 40.014ZM214.166 46.16C214.829 46.16 215.342 45.9313 215.706 45.474C216.07 45.0073 216.252 44.3587 216.252 43.528C216.252 42.716 216.07 42.086 215.706 41.638C215.342 41.19 214.829 40.966 214.166 40.966C213.503 40.966 212.99 41.19 212.626 41.638C212.271 42.086 212.094 42.7253 212.094 43.556C212.094 44.3867 212.271 45.0307 212.626 45.488C212.99 45.936 213.503 46.16 214.166 46.16ZM221.937 47.098C221.293 47.098 220.723 46.9533 220.229 46.664C219.743 46.3747 219.365 45.964 219.095 45.432C218.833 44.8907 218.703 44.2653 218.703 43.556C218.703 42.8467 218.833 42.226 219.095 41.694C219.365 41.1527 219.743 40.7373 220.229 40.448C220.723 40.1587 221.293 40.014 221.937 40.014C222.581 40.014 223.15 40.1587 223.645 40.448C224.139 40.7373 224.517 41.1527 224.779 41.694C225.049 42.226 225.185 42.8467 225.185 43.556C225.185 44.2653 225.049 44.8907 224.779 45.432C224.517 45.964 224.139 46.3747 223.645 46.664C223.15 46.9533 222.581 47.098 221.937 47.098ZM221.937 46.16C222.609 46.16 223.122 45.9407 223.477 45.502C223.841 45.054 224.023 44.4053 224.023 43.556C224.023 42.7253 223.841 42.086 223.477 41.638C223.113 41.1807 222.599 40.952 221.937 40.952C221.274 40.952 220.761 41.1807 220.397 41.638C220.033 42.086 219.851 42.7253 219.851 43.556C219.851 44.396 220.028 45.04 220.383 45.488C220.747 45.936 221.265 46.16 221.937 46.16ZM229.66 40.014C231.368 40.014 232.222 40.91 232.222 42.702V46.51C232.222 46.678 232.171 46.8133 232.068 46.916C231.975 47.0187 231.844 47.07 231.676 47.07C231.508 47.07 231.373 47.0187 231.27 46.916C231.168 46.8133 231.116 46.678 231.116 46.51V45.838C230.939 46.2393 230.668 46.552 230.304 46.776C229.94 46.9907 229.52 47.098 229.044 47.098C228.606 47.098 228.2 47.0093 227.826 46.832C227.462 46.6547 227.173 46.4073 226.958 46.09C226.744 45.7727 226.636 45.4227 226.636 45.04C226.636 44.5267 226.767 44.13 227.028 43.85C227.29 43.5607 227.719 43.3553 228.316 43.234C228.914 43.1033 229.744 43.038 230.808 43.038H231.116V42.576C231.116 42.016 231 41.6053 230.766 41.344C230.542 41.0827 230.174 40.952 229.66 40.952C229.026 40.952 228.382 41.1247 227.728 41.47C227.476 41.6287 227.299 41.708 227.196 41.708C227.084 41.708 226.991 41.666 226.916 41.582C226.842 41.498 226.804 41.3907 226.804 41.26C226.804 41.1293 226.842 41.0173 226.916 40.924C227 40.8213 227.131 40.7187 227.308 40.616C227.635 40.4293 228.004 40.2847 228.414 40.182C228.834 40.07 229.25 40.014 229.66 40.014ZM229.198 46.202C229.758 46.202 230.216 46.0153 230.57 45.642C230.934 45.2593 231.116 44.7693 231.116 44.172V43.766H230.864C230.043 43.766 229.418 43.8033 228.988 43.878C228.559 43.9433 228.251 44.06 228.064 44.228C227.887 44.3867 227.798 44.6247 227.798 44.942C227.798 45.306 227.929 45.6093 228.19 45.852C228.461 46.0853 228.797 46.202 229.198 46.202ZM237.672 40.042C238.064 40.014 238.26 40.1727 238.26 40.518C238.26 40.6673 238.218 40.7887 238.134 40.882C238.05 40.966 237.905 41.0173 237.7 41.036L237.28 41.078C236.655 41.134 236.188 41.358 235.88 41.75C235.581 42.1327 235.432 42.5853 235.432 43.108V46.51C235.432 46.6967 235.381 46.8367 235.278 46.93C235.175 47.0233 235.04 47.07 234.872 47.07C234.704 47.07 234.564 47.0233 234.452 46.93C234.349 46.8273 234.298 46.6873 234.298 46.51V40.602C234.298 40.4247 234.354 40.2893 234.466 40.196C234.578 40.0933 234.713 40.042 234.872 40.042C235.021 40.042 235.147 40.0933 235.25 40.196C235.353 40.2893 235.404 40.42 235.404 40.588V41.372C235.6 40.9613 235.875 40.6487 236.23 40.434C236.594 40.2193 237.009 40.0933 237.476 40.056L237.672 40.042ZM244.571 37.06C244.748 37.06 244.888 37.1113 244.991 37.214C245.094 37.3167 245.145 37.4473 245.145 37.606V46.51C245.145 46.678 245.094 46.8133 244.991 46.916C244.888 47.0187 244.748 47.07 244.571 47.07C244.394 47.07 244.254 47.0187 244.151 46.916C244.058 46.8133 244.011 46.678 244.011 46.51V45.754C243.806 46.1833 243.502 46.5147 243.101 46.748C242.709 46.9813 242.247 47.098 241.715 47.098C241.118 47.098 240.59 46.9487 240.133 46.65C239.676 46.3513 239.321 45.936 239.069 45.404C238.817 44.8627 238.691 44.2373 238.691 43.528C238.691 42.828 238.817 42.212 239.069 41.68C239.321 41.148 239.676 40.7373 240.133 40.448C240.59 40.1587 241.118 40.014 241.715 40.014C242.247 40.014 242.709 40.1307 243.101 40.364C243.502 40.5973 243.806 40.9287 244.011 41.358V37.606C244.011 37.438 244.058 37.3073 244.151 37.214C244.254 37.1113 244.394 37.06 244.571 37.06ZM241.939 46.16C242.602 46.16 243.11 45.936 243.465 45.488C243.829 45.0307 244.011 44.3867 244.011 43.556C244.011 42.7253 243.829 42.086 243.465 41.638C243.11 41.19 242.602 40.966 241.939 40.966C241.276 40.966 240.758 41.19 240.385 41.638C240.021 42.086 239.839 42.716 239.839 43.528C239.839 44.3587 240.021 45.0073 240.385 45.474C240.758 45.9313 241.276 46.16 241.939 46.16Z" fill="#717579"/>
<rect width="52" height="52" rx="14" fill="#5A45AA"/>
<path fill-rule="evenodd" clip-rule="evenodd" d="M16.7901 10.487C14.3963 10.487 12.4276 12.4558 12.4276 14.8495V28.314C12.4276 30.7077 14.3963 32.684 16.7901 32.684H19.6421V36.1975C19.6421 38.5912 21.6146 40.5637 24.0084 40.5637H34.2569C36.6507 40.5637 38.6232 38.5912 38.6232 36.1975V14.8514C38.6232 12.4576 36.6506 10.4852 34.2569 10.4852C28.5282 10.4825 22.1873 10.4866 16.7901 10.487ZM16.7901 13.3941H18.1867C19.2474 13.3941 19.6421 14.1402 19.6421 14.8514V29.7675H16.7901C15.9586 29.7675 15.3365 29.1454 15.3365 28.314V14.8495C15.3365 14.018 15.9586 13.3941 16.7901 13.3941ZM26.3242 17.2771H31.782C33.813 17.1825 33.813 20.2787 31.782 20.1841H26.3242C24.2931 20.2787 24.2931 17.1825 26.3242 17.2771ZM29.5742 22.5548C30.2902 22.5548 31.054 22.5548 31.782 22.5548C33.813 22.4603 33.813 25.5584 31.782 25.4638H29.7182C27.7796 25.5593 27.6356 22.6502 29.5742 22.5548Z" fill="white"/>
</svg>
