<svg width="32" height="32" viewBox="0 0 32 32" fill="none" xmlns="http://www.w3.org/2000/svg">
<g clip-path="url(#clip0_0_260)">
<path d="M20.5719 12.8852C21.4799 12.1514 22.2159 11.1954 22.6919 10.0727C23.0714 9.17769 23.2638 8.22781 23.2638 7.24937C23.2638 3.25206 20.0052 0 16 0C11.9948 0 8.73625 3.25206 8.73625 7.24937C8.73625 8.37825 8.98944 9.46037 9.48888 10.4657C9.9555 11.4052 10.6198 12.2289 11.4321 12.8851C6.81425 13.0021 3.09375 16.7873 3.09375 21.4233V23.4588C3.09375 28.1684 6.93313 32 11.6524 32H18.1004C18.8598 32 19.4754 31.3844 19.4754 30.625C19.4754 29.8656 18.8598 29.25 18.1004 29.25H11.6524C8.44944 29.25 5.84375 26.6521 5.84375 23.4589V21.4234C5.84375 18.2301 8.4495 15.6322 11.6524 15.6322H20.3476C23.5504 15.6322 26.1562 18.2301 26.1562 21.4234V22.4411C26.1562 24.4641 25.2622 26.3694 23.7036 27.6684C23.1202 28.1545 23.0414 29.0216 23.5276 29.6049C24.0138 30.1882 24.8808 30.2671 25.4642 29.7809C27.6516 27.9579 28.9062 25.2826 28.9062 22.4411V21.4233C28.9062 16.7886 25.1879 13.0042 20.5719 12.8852V12.8852ZM16 2.75C18.4889 2.75 20.5138 4.76837 20.5138 7.24937C20.5138 7.85694 20.3948 8.44569 20.1601 8.99925C19.4519 10.6695 17.819 11.7487 16 11.7487C14.2709 11.7487 12.7197 10.7884 11.9517 9.24238C11.6429 8.62056 11.4862 7.95 11.4862 7.24937C11.4862 4.76837 13.5111 2.75 16 2.75V2.75Z" fill="#717579"/>
<path d="M21.5688 31.6875C22.3282 31.6875 22.9438 31.0719 22.9438 30.3125C22.9438 29.5531 22.3282 28.9375 21.5688 28.9375C20.8095 28.9375 20.1938 29.5531 20.1938 30.3125C20.1938 31.0719 20.8095 31.6875 21.5688 31.6875Z" fill="#717579"/>
</g>
<defs>
<clipPath id="clip0_0_260">
<rect width="32" height="32" fill="white"/>
</clipPath>
</defs>
</svg>
