<svg width="32" height="32" viewBox="0 0 32 32" fill="none" xmlns="http://www.w3.org/2000/svg">
<g clip-path="url(#clip0_0_269)">
<path d="M26.5273 32.0003C26.321 32.0003 26.1118 31.9537 25.9147 31.8555C25.9005 31.8484 24.4809 31.1418 22.8743 30.4471C19.9744 29.193 19.151 29.1294 19.0154 29.1294L17.0632 29.1295L12.9846 29.1294C5.82487 29.1294 0 23.2307 0 15.9803V13.1491C0 5.89869 5.82487 0 12.9846 0H19.0154C26.1751 0 32 5.89869 32 13.1491V26.1051C32 26.8645 31.3844 27.4801 30.625 27.4801C29.8656 27.4801 29.25 26.8645 29.25 26.1051V13.1491C29.25 7.415 24.6588 2.75 19.0154 2.75H12.9846C7.34119 2.75 2.75 7.415 2.75 13.1491V15.9803C2.75 21.7144 7.34119 26.3794 12.9846 26.3794L17.0632 26.3794L19.0153 26.3794C19.6092 26.3794 20.7696 26.5399 23.9771 27.9277C25.6506 28.6519 27.0819 29.3645 27.1421 29.3946C27.8216 29.7335 28.0977 30.5591 27.7588 31.2386C27.5181 31.7211 27.0321 32.0003 26.5273 32.0003V32.0003ZM24.4675 12.5899C24.4675 11.8305 23.8519 11.2149 23.0925 11.2149H10.6608C9.90144 11.2149 9.28581 11.8305 9.28581 12.5899C9.28581 13.3493 9.90144 13.9649 10.6608 13.9649H23.0925C23.8519 13.9649 24.4675 13.3493 24.4675 12.5899ZM17.1822 16.7541C17.1822 15.9948 16.5666 15.3791 15.8073 15.3791H10.6608C9.90144 15.3791 9.28581 15.9948 9.28581 16.7541C9.28581 17.5135 9.90144 18.1291 10.6608 18.1291H15.8073C16.5666 18.1291 17.1822 17.5136 17.1822 16.7541Z" fill="#717579"/>
<path d="M30.2531 31.2771C31.0124 31.2771 31.6281 30.6615 31.6281 29.9021C31.6281 29.1427 31.0124 28.5271 30.2531 28.5271C29.4937 28.5271 28.8781 29.1427 28.8781 29.9021C28.8781 30.6615 29.4937 31.2771 30.2531 31.2771Z" fill="#717579"/>
</g>
<defs>
<clipPath id="clip0_0_269">
<rect width="32" height="32" fill="white"/>
</clipPath>
</defs>
</svg>
