<svg width="32" height="32" viewBox="0 0 32 32" fill="none" xmlns="http://www.w3.org/2000/svg">
<g clip-path="url(#clip0_0_248)">
<path d="M10.024 32H5.16331C2.31625 32 0 29.6837 0 26.8367V21.8879C0 19.0408 2.31625 16.7246 5.16331 16.7246H10.024C12.8711 16.7246 15.1873 19.0409 15.1873 21.8879V26.8367C15.1873 29.6837 12.8711 32 10.024 32ZM5.16331 19.4746C3.83262 19.4746 2.75 20.5572 2.75 21.8879V26.8367C2.75 28.1674 3.83262 29.25 5.16331 29.25H10.024C11.3548 29.25 12.4373 28.1674 12.4373 26.8367V21.8879C12.4373 20.5572 11.3547 19.4746 10.024 19.4746H5.16331ZM10.024 15.2755H5.16331C2.31625 15.2755 0 12.9593 0 10.1121V5.16331C0 2.31625 2.31625 0 5.16331 0H10.024C12.8711 0 15.1873 2.31625 15.1873 5.16331V10.1121C15.1873 12.9593 12.8711 15.2755 10.024 15.2755ZM5.16331 2.75C3.83262 2.75 2.75 3.83262 2.75 5.16331V10.1121C2.75 11.4429 3.83262 12.5254 5.16331 12.5254H10.024C11.3548 12.5254 12.4373 11.4428 12.4373 10.1121V5.16331C12.4373 3.83256 11.3547 2.75 10.024 2.75H5.16331ZM27.8743 30.625C27.8743 29.8656 27.2586 29.25 26.4993 29.25H22.4315C20.8496 29.25 19.5627 27.9495 19.5627 26.3511V22.3734C19.5627 20.775 20.8496 19.4745 22.4315 19.4745H26.3811C27.9631 19.4745 29.2499 20.775 29.2499 22.3734V26.47C29.2499 27.2294 29.8656 27.845 30.6249 27.845C31.3843 27.845 31.9999 27.2294 31.9999 26.47V22.3734C31.9999 19.2586 29.4794 16.7245 26.3811 16.7245H22.4315C19.3333 16.7245 16.8127 19.2586 16.8127 22.3734V26.3511C16.8127 29.4659 19.3333 32 22.4315 32H26.4993C27.2587 32 27.8743 31.3844 27.8743 30.625ZM26.8367 15.2755H21.976C19.1289 15.2755 16.8127 12.9592 16.8127 10.1122V5.16331C16.8127 2.31625 19.1289 0 21.976 0H26.8367C29.6837 0 32 2.31625 32 5.16331V10.1121C32 12.9593 29.6837 15.2755 26.8367 15.2755ZM21.976 2.75C20.6453 2.75 19.5627 3.83262 19.5627 5.16331V10.1121C19.5627 11.4429 20.6453 12.5254 21.976 12.5254H26.8367C28.1674 12.5254 29.25 11.4428 29.25 10.1121V5.16331C29.25 3.83262 28.1674 2.75 26.8367 2.75H21.976Z" fill="#717579"/>
<path d="M30.277 31.5681C31.0364 31.5681 31.652 30.9525 31.652 30.1931C31.652 29.4337 31.0364 28.8181 30.277 28.8181C29.5176 28.8181 28.902 29.4337 28.902 30.1931C28.902 30.9525 29.5176 31.5681 30.277 31.5681Z" fill="#717579"/>
</g>
<defs>
<clipPath id="clip0_0_248">
<rect width="32" height="32" fill="white"/>
</clipPath>
</defs>
</svg>
