<svg width="32" height="32" viewBox="0 0 32 32" fill="none" xmlns="http://www.w3.org/2000/svg">
<path fill-rule="evenodd" clip-rule="evenodd" d="M11.8745 25.7601L7.46646 29.0667C7.06246 29.3694 6.52246 29.4187 6.07046 29.1921C5.61846 28.9667 5.33313 28.5054 5.33313 28.0001V4.00005C5.33313 3.26405 5.93046 2.66672 6.66646 2.66672H25.3331C26.0691 2.66672 26.6665 3.26405 26.6665 4.00005V28.0001C26.6665 28.5054 26.3811 28.9667 25.9291 29.1921C25.4771 29.4187 24.9371 29.3694 24.5331 29.0667L20.1251 25.7601L16.9425 28.9427C16.4225 29.4641 15.5771 29.4641 15.0571 28.9427L11.8745 25.7601ZM23.9998 25.3334V5.33338H7.9998V25.3334L11.1998 22.9334C11.7305 22.5347 12.4731 22.5881 12.9425 23.0574L15.9998 26.1147L19.0571 23.0574C19.5265 22.5881 20.2691 22.5347 20.7998 22.9334L23.9998 25.3334ZM14.6665 16.0001H17.3331C18.0691 16.0001 18.6665 15.4027 18.6665 14.6667C18.6665 13.9307 18.0691 13.3334 17.3331 13.3334H14.6665C13.9305 13.3334 13.3331 13.9307 13.3331 14.6667C13.3331 15.4027 13.9305 16.0001 14.6665 16.0001ZM11.9998 10.6667H19.9998C20.7358 10.6667 21.3331 10.0694 21.3331 9.33338C21.3331 8.59738 20.7358 8.00005 19.9998 8.00005H11.9998C11.2638 8.00005 10.6665 8.59738 10.6665 9.33338C10.6665 10.0694 11.2638 10.6667 11.9998 10.6667Z" fill="white"/>
</svg>
