<svg width="32" height="32" viewBox="0 0 32 32" fill="none" xmlns="http://www.w3.org/2000/svg">
<path d="M24.7359 14.625C25.4953 14.625 26.1109 15.2406 26.1109 16C26.1109 16.7594 25.4953 17.375 24.7359 17.375H19.0423C18.2829 17.375 17.6673 16.7594 17.6673 16C17.6673 15.2406 18.2829 14.625 19.0423 14.625H24.7359ZM3.54346 17.375C2.78408 17.375 2.16846 16.7594 2.16846 16C2.16846 15.2406 2.78408 14.625 3.54346 14.625H6.29652C6.89046 12.6186 8.74827 11.1503 10.9434 11.1503C13.6157 11.1503 15.7898 13.3259 15.7898 16C15.7898 18.6741 13.6157 20.8497 10.9434 20.8497C8.74827 20.8497 6.89052 19.3814 6.29652 17.375H3.54346ZM8.8469 16C8.8469 17.1578 9.78733 18.0997 10.9433 18.0997C12.0993 18.0997 13.0398 17.1578 13.0398 16C13.0398 14.8422 12.0993 13.9003 10.9433 13.9003C9.7874 13.9003 8.8469 14.8422 8.8469 16ZM4.09896 6.22469H13.5082C14.2676 6.22469 14.8832 5.60906 14.8832 4.84969C14.8832 4.09031 14.2676 3.47469 13.5082 3.47469H4.09896C3.33958 3.47469 2.72396 4.09031 2.72396 4.84969C2.72396 5.60906 3.33958 6.22469 4.09896 6.22469V6.22469ZM15.6497 4.84969C15.6497 2.17556 17.8238 0 20.4962 0C22.8144 0 24.7566 1.6375 25.231 3.81706H27.8961C28.6555 3.81706 29.2711 4.43269 29.2711 5.19206C29.2711 5.95144 28.6555 6.56706 27.8961 6.56706H25.0278C24.3333 8.39581 22.5645 9.69938 20.4963 9.69938C17.8238 9.69938 15.6497 7.52381 15.6497 4.84969ZM18.3997 4.84969C18.3997 6.00744 19.3402 6.94938 20.4962 6.94938C21.6522 6.94938 22.5926 6.0075 22.5926 4.84969C22.5926 3.69188 21.6522 2.75 20.4962 2.75C19.3402 2.75 18.3997 3.69194 18.3997 4.84969ZM13.4148 25.7753H4.00552C3.24614 25.7753 2.63052 26.3909 2.63052 27.1503C2.63052 27.9097 3.24614 28.5253 4.00552 28.5253H13.4148C14.1741 28.5253 14.7898 27.9097 14.7898 27.1503C14.7898 26.3909 14.1742 25.7753 13.4148 25.7753ZM29.1776 27.4927C29.1776 28.2521 28.562 28.8677 27.8026 28.8677H24.9343C24.2398 30.6964 22.471 32 20.4027 32C17.7303 32 15.5563 29.8244 15.5563 27.1503C15.5563 24.4762 17.7303 22.3006 20.4027 22.3006C22.7209 22.3006 24.6631 23.9381 25.1375 26.1176H27.8026C28.562 26.1177 29.1776 26.7332 29.1776 27.4927V27.4927ZM22.4991 27.1503C22.4991 25.9926 21.5587 25.0506 20.4027 25.0506C19.2467 25.0506 18.3063 25.9925 18.3063 27.1503C18.3063 28.3081 19.2467 29.25 20.4027 29.25C21.5587 29.25 22.4991 28.3081 22.4991 27.1503Z" fill="#717579"/>
<path d="M28.1472 17.375C28.9066 17.375 29.5222 16.7594 29.5222 16C29.5222 15.2406 28.9066 14.625 28.1472 14.625C27.3878 14.625 26.7722 15.2406 26.7722 16C26.7722 16.7594 27.3878 17.375 28.1472 17.375Z" fill="#717579"/>
</svg>
