<svg width="32" height="32" viewBox="0 0 32 32" fill="none" xmlns="http://www.w3.org/2000/svg">
<g clip-path="url(#clip0_0_227)">
<path d="M18.2807 26.6742C18.2502 26.6742 18.2195 26.6732 18.1887 26.6712C17.6142 26.6342 17.1254 26.2566 16.9438 25.7091L14.0241 16.8806L11.5511 22.7185C11.3454 23.2043 10.8912 23.5319 10.3659 23.5732C9.84044 23.6141 9.3415 23.362 9.06256 22.9145L6.38625 18.6321C5.98381 17.9881 6.17956 17.1399 6.82356 16.7375C7.4675 16.3351 8.31581 16.5307 8.71831 17.1748L10.0263 19.2677L12.8839 12.5221C13.1111 11.9856 13.6539 11.6411 14.2359 11.6642C14.8175 11.6877 15.3314 12.0756 15.5146 12.6293L18.512 21.6928L20.5996 17.368C20.8707 16.8289 21.4223 16.5002 22.0179 16.5191L25.0801 16.5589C25.8394 16.5688 26.4469 17.1923 26.4371 17.9516C26.4273 18.7109 25.8033 19.319 25.0443 19.3086L22.7307 19.2786L19.5456 25.8781C19.3091 26.3688 18.8193 26.6742 18.2807 26.6742V26.6742ZM17.0693 24.682C17.0691 24.6825 17.0688 24.683 17.0686 24.6835L17.0693 24.682ZM11.3939 21.456L11.3955 21.4585C11.395 21.4576 11.3944 21.4568 11.3939 21.456ZM25.9468 30.625C25.9468 29.8656 25.3312 29.25 24.5718 29.25H7.42819C4.84862 29.25 2.75 27.1524 2.75 24.5741V13.701C2.75 11.1227 4.84862 9.02515 7.42819 9.02515H24.5718C27.1513 9.02515 29.25 11.1228 29.25 13.701V24.5741C29.25 25.154 29.1454 25.7193 28.9393 26.2543C28.6662 26.9629 29.0193 27.7586 29.7279 28.0317C30.4367 28.3049 31.2322 27.9517 31.5053 27.2431C31.8335 26.3915 31.9999 25.4935 31.9999 24.5741V13.701C31.9999 9.60633 28.6677 6.27515 24.5718 6.27515H7.42819C3.33225 6.27508 0 9.60633 0 13.701V24.5741C0 28.6688 3.33225 32 7.42819 32H24.5718C25.3312 32 25.9468 31.3844 25.9468 30.625Z" fill="#717579"/>
<path d="M28.5625 31.5278C29.3219 31.5278 29.9375 30.9122 29.9375 30.1528C29.9375 29.3934 29.3219 28.7778 28.5625 28.7778C27.8031 28.7778 27.1875 29.3934 27.1875 30.1528C27.1875 30.9122 27.8031 31.5278 28.5625 31.5278Z" fill="#717579"/>
</g>
<defs>
<clipPath id="clip0_0_227">
<rect width="32" height="32" fill="white"/>
</clipPath>
</defs>
</svg>
