<svg width="22" height="28" viewBox="0 0 22 28" fill="none" xmlns="http://www.w3.org/2000/svg">
<path fill-rule="evenodd" clip-rule="evenodd" d="M6.87446 23.7601L2.46646 27.0667C2.06246 27.3694 1.52246 27.4187 1.07046 27.1921C0.618463 26.9667 0.33313 26.5054 0.33313 26.0001V2.00005C0.33313 1.26405 0.930463 0.666718 1.66646 0.666718H20.3331C21.0691 0.666718 21.6665 1.26405 21.6665 2.00005V26.0001C21.6665 26.5054 21.3811 26.9667 20.9291 27.1921C20.4771 27.4187 19.9371 27.3694 19.5331 27.0667L15.1251 23.7601L11.9425 26.9427C11.4225 27.4641 10.5771 27.4641 10.0571 26.9427L6.87446 23.7601ZM18.9998 23.3334V3.33338H2.9998V23.3334L6.1998 20.9334C6.73046 20.5347 7.47313 20.5881 7.94246 21.0574L10.9998 24.1147L14.0571 21.0574C14.5265 20.5881 15.2691 20.5347 15.7998 20.9334L18.9998 23.3334ZM9.66646 14.0001H12.3331C13.0691 14.0001 13.6665 13.4027 13.6665 12.6667C13.6665 11.9307 13.0691 11.3334 12.3331 11.3334H9.66646C8.93046 11.3334 8.33313 11.9307 8.33313 12.6667C8.33313 13.4027 8.93046 14.0001 9.66646 14.0001ZM6.9998 8.66672H14.9998C15.7358 8.66672 16.3331 8.06938 16.3331 7.33338C16.3331 6.59738 15.7358 6.00005 14.9998 6.00005H6.9998C6.2638 6.00005 5.66646 6.59738 5.66646 7.33338C5.66646 8.06938 6.2638 8.66672 6.9998 8.66672Z" fill="white"/>
</svg>
