<svg width="32" height="26" viewBox="0 0 32 26" fill="none" xmlns="http://www.w3.org/2000/svg">
<path d="M24.5718 0.250519H7.42819C3.33225 0.250519 0 3.58458 0 7.68277V18.5671C0 22.6653 3.33225 25.9994 7.42819 25.9994H24.5718C25.3312 25.9994 25.9468 25.3838 25.9468 24.6244C25.9468 23.865 25.3312 23.2494 24.5718 23.2494H7.42819C4.84862 23.2494 2.75 21.149 2.75 18.5671V7.68277C2.75 5.10096 4.84862 3.00052 7.42819 3.00052H24.5718C27.1513 3.00052 29.25 5.10096 29.25 7.68277V8.93389C29.1851 8.92452 29.1189 8.91946 29.0514 8.91946H22.3609C21.2337 8.91946 20.1592 9.50165 19.4129 10.5167C18.749 11.4196 18.3834 12.5978 18.3834 13.8341C18.3834 15.0705 18.749 16.2486 19.4129 17.1516C20.1592 18.1666 21.2337 18.7488 22.3609 18.7488H29.0514C29.1176 18.7488 29.1826 18.7439 29.2462 18.7348C29.228 19.257 29.1254 19.766 28.9391 20.2501C28.6663 20.9588 29.0197 21.7545 29.7284 22.0273C30.4371 22.3003 31.2327 21.9468 31.5056 21.2381C31.8336 20.3858 32 19.4872 32 18.5673V7.68289C32 3.58458 28.6677 0.250519 24.5718 0.250519V0.250519ZM22.3609 15.9987C21.7815 15.9987 21.1334 15.073 21.1334 13.834C21.1334 12.5951 21.7814 11.6693 22.3609 11.6693H29.0514C29.1189 11.6693 29.1851 11.6643 29.25 11.6549V16.0131C29.1851 16.0038 29.1189 15.9987 29.0514 15.9987H22.3609Z" fill="#717579"/>
<path d="M28.5924 25.7352C29.3518 25.7352 29.9674 25.1196 29.9674 24.3602C29.9674 23.6008 29.3518 22.9852 28.5924 22.9852C27.833 22.9852 27.2174 23.6008 27.2174 24.3602C27.2174 25.1196 27.833 25.7352 28.5924 25.7352Z" fill="#717579"/>
</svg>
